<svg xmlns="http://www.w3.org/2000/svg" xmlns:xlink="http://www.w3.org/1999/xlink" width="336" zoomAndPan="magnify" viewBox="0 0 252 143.999998" height="192" preserveAspectRatio="xMidYMid meet" version="1.0"><defs><g/></defs><g fill="#000000" fill-opacity="1"><g transform="translate(37.676082, 63.249989)"><g><path d="M 8.40625 0.40625 C 7.019531 0.40625 5.816406 0.15625 4.796875 -0.34375 C 3.785156 -0.851562 3.003906 -1.597656 2.453125 -2.578125 C 1.910156 -3.566406 1.640625 -4.753906 1.640625 -6.140625 C 1.640625 -7.410156 1.910156 -8.476562 2.453125 -9.34375 C 3.003906 -10.207031 3.851562 -10.914062 5 -11.46875 C 6.144531 -12.03125 7.644531 -12.457031 9.5 -12.75 C 10.78125 -12.957031 11.753906 -13.1875 12.421875 -13.4375 C 13.097656 -13.6875 13.550781 -13.96875 13.78125 -14.28125 C 14.019531 -14.59375 14.140625 -14.988281 14.140625 -15.46875 C 14.140625 -16.15625 13.898438 -16.679688 13.421875 -17.046875 C 12.941406 -17.410156 12.140625 -17.59375 11.015625 -17.59375 C 9.816406 -17.59375 8.675781 -17.328125 7.59375 -16.796875 C 6.519531 -16.265625 5.582031 -15.5625 4.78125 -14.6875 L 4.390625 -14.6875 L 2.125 -18.109375 C 3.21875 -19.316406 4.550781 -20.257812 6.125 -20.9375 C 7.707031 -21.613281 9.429688 -21.953125 11.296875 -21.953125 C 14.140625 -21.953125 16.195312 -21.347656 17.46875 -20.140625 C 18.75 -18.929688 19.390625 -17.210938 19.390625 -14.984375 L 19.390625 -5.625 C 19.390625 -4.664062 19.816406 -4.1875 20.671875 -4.1875 C 20.992188 -4.1875 21.3125 -4.242188 21.625 -4.359375 L 21.890625 -4.28125 L 22.28125 -0.515625 C 21.988281 -0.316406 21.570312 -0.15625 21.03125 -0.03125 C 20.5 0.09375 19.914062 0.15625 19.28125 0.15625 C 17.988281 0.15625 16.976562 -0.0859375 16.25 -0.578125 C 15.53125 -1.078125 15.015625 -1.851562 14.703125 -2.90625 L 14.296875 -2.953125 C 13.242188 -0.710938 11.28125 0.40625 8.40625 0.40625 Z M 10.125 -3.640625 C 11.375 -3.640625 12.367188 -4.054688 13.109375 -4.890625 C 13.859375 -5.734375 14.234375 -6.90625 14.234375 -8.40625 L 14.234375 -10.59375 L 13.875 -10.671875 C 13.539062 -10.410156 13.109375 -10.191406 12.578125 -10.015625 C 12.054688 -9.835938 11.300781 -9.664062 10.3125 -9.5 C 9.144531 -9.300781 8.300781 -8.960938 7.78125 -8.484375 C 7.269531 -8.015625 7.015625 -7.34375 7.015625 -6.46875 C 7.015625 -5.539062 7.285156 -4.835938 7.828125 -4.359375 C 8.378906 -3.878906 9.144531 -3.640625 10.125 -3.640625 Z M 10.125 -3.640625 "/></g></g></g><g fill="#000000" fill-opacity="1"><g transform="translate(58.788713, 63.249989)"><g><path d="M 5.796875 -24.125 C 4.828125 -24.125 4.035156 -24.421875 3.421875 -25.015625 C 2.804688 -25.609375 2.5 -26.375 2.5 -27.3125 C 2.5 -28.226562 2.804688 -28.984375 3.421875 -29.578125 C 4.035156 -30.171875 4.828125 -30.46875 5.796875 -30.46875 C 6.453125 -30.46875 7.03125 -30.332031 7.53125 -30.0625 C 8.039062 -29.789062 8.4375 -29.414062 8.71875 -28.9375 C 9 -28.457031 9.140625 -27.914062 9.140625 -27.3125 C 9.140625 -26.695312 9 -26.144531 8.71875 -25.65625 C 8.4375 -25.175781 8.039062 -24.800781 7.53125 -24.53125 C 7.03125 -24.257812 6.453125 -24.125 5.796875 -24.125 Z M 3.109375 0 L 3.109375 -21.546875 L 8.515625 -21.546875 L 8.515625 0 Z M 3.109375 0 "/></g></g></g><g fill="#000000" fill-opacity="1"><g transform="translate(68.789144, 63.249989)"><g><path d="M 3.109375 0 L 3.109375 -21.546875 L 8.359375 -21.546875 L 8.359375 -18.34375 L 8.765625 -18.265625 C 9.285156 -19.460938 9.96875 -20.335938 10.8125 -20.890625 C 11.664062 -21.453125 12.695312 -21.734375 13.90625 -21.734375 C 15.132812 -21.734375 16.066406 -21.523438 16.703125 -21.109375 L 15.78125 -16.453125 L 15.375 -16.375 C 15.019531 -16.507812 14.679688 -16.609375 14.359375 -16.671875 C 14.035156 -16.742188 13.640625 -16.78125 13.171875 -16.78125 C 11.660156 -16.78125 10.503906 -16.25 9.703125 -15.1875 C 8.910156 -14.125 8.515625 -12.421875 8.515625 -10.078125 L 8.515625 0 Z M 3.109375 0 "/></g></g></g><g fill="#000000" fill-opacity="1"><g transform="translate(32.883113, 94.749987)"><g/></g></g><g fill="#000000" fill-opacity="1"><g transform="translate(40.722956, 94.749987)"><g><path d="M 3.765625 0 L 3.765625 -17.265625 L 0.71875 -17.265625 L 0.71875 -21.5625 L 3.765625 -21.5625 C 3.546875 -22.476562 3.4375 -23.332031 3.4375 -24.125 C 3.4375 -25.488281 3.75 -26.65625 4.375 -27.625 C 5 -28.59375 5.894531 -29.332031 7.0625 -29.84375 C 8.238281 -30.351562 9.632812 -30.609375 11.25 -30.609375 C 13.632812 -30.609375 15.410156 -30.195312 16.578125 -29.375 L 15.3125 -25.390625 L 14.90625 -25.3125 C 14.09375 -25.882812 13.054688 -26.171875 11.796875 -26.171875 C 10.816406 -26.171875 10.082031 -25.929688 9.59375 -25.453125 C 9.113281 -24.984375 8.875 -24.335938 8.875 -23.515625 C 8.875 -23.160156 8.894531 -22.835938 8.9375 -22.546875 C 8.976562 -22.253906 9.0625 -21.925781 9.1875 -21.5625 L 15.328125 -21.5625 L 15.328125 -17.265625 L 9.1875 -17.265625 L 9.1875 0 Z M 3.765625 0 "/></g></g></g><g fill="#000000" fill-opacity="1"><g transform="translate(54.668314, 94.749987)"><g><path d="M 8.953125 0.40625 C 7.003906 0.40625 5.519531 -0.113281 4.5 -1.15625 C 3.476562 -2.207031 2.96875 -3.800781 2.96875 -5.9375 L 2.96875 -30.203125 L 8.375 -30.203125 L 8.375 -6.15625 C 8.375 -4.84375 8.921875 -4.1875 10.015625 -4.1875 C 10.328125 -4.1875 10.660156 -4.238281 11.015625 -4.34375 L 11.296875 -4.265625 L 11.78125 -0.09375 C 11.476562 0.0625 11.078125 0.179688 10.578125 0.265625 C 10.085938 0.359375 9.546875 0.40625 8.953125 0.40625 Z M 8.953125 0.40625 "/></g></g></g><g fill="#000000" fill-opacity="1"><g transform="translate(65.449918, 94.749987)"><g><path d="M 12.515625 0.40625 C 10.410156 0.40625 8.5625 -0.0234375 6.96875 -0.890625 C 5.375 -1.753906 4.132812 -3.019531 3.25 -4.6875 C 2.375 -6.363281 1.9375 -8.390625 1.9375 -10.765625 C 1.9375 -13.128906 2.375 -15.148438 3.25 -16.828125 C 4.132812 -18.515625 5.375 -19.789062 6.96875 -20.65625 C 8.5625 -21.519531 10.410156 -21.953125 12.515625 -21.953125 C 14.628906 -21.953125 16.484375 -21.519531 18.078125 -20.65625 C 19.671875 -19.789062 20.910156 -18.515625 21.796875 -16.828125 C 22.679688 -15.148438 23.125 -13.128906 23.125 -10.765625 C 23.125 -8.390625 22.679688 -6.363281 21.796875 -4.6875 C 20.910156 -3.019531 19.671875 -1.753906 18.078125 -0.890625 C 16.484375 -0.0234375 14.628906 0.40625 12.515625 0.40625 Z M 12.515625 -4.1875 C 15.867188 -4.1875 17.546875 -6.378906 17.546875 -10.765625 C 17.546875 -13.046875 17.113281 -14.710938 16.25 -15.765625 C 15.394531 -16.828125 14.148438 -17.359375 12.515625 -17.359375 C 9.171875 -17.359375 7.5 -15.160156 7.5 -10.765625 C 7.5 -6.378906 9.171875 -4.1875 12.515625 -4.1875 Z M 12.515625 -4.1875 "/></g></g></g><g fill="#000000" fill-opacity="1"><g transform="translate(39.214361, 105.805837)"><g><path d="M 3.0625 0.125 C 2.644531 0.125 2.253906 0.0703125 1.890625 -0.03125 C 1.535156 -0.144531 1.234375 -0.300781 0.984375 -0.5 C 0.734375 -0.695312 0.554688 -0.914062 0.453125 -1.15625 L 1.046875 -1.765625 L 1.171875 -1.765625 C 1.390625 -1.429688 1.648438 -1.179688 1.953125 -1.015625 C 2.265625 -0.847656 2.632812 -0.765625 3.0625 -0.765625 C 3.5625 -0.765625 3.941406 -0.859375 4.203125 -1.046875 C 4.460938 -1.242188 4.59375 -1.515625 4.59375 -1.859375 C 4.59375 -2.128906 4.515625 -2.347656 4.359375 -2.515625 C 4.203125 -2.691406 3.945312 -2.820312 3.59375 -2.90625 L 2.453125 -3.1875 C 1.847656 -3.332031 1.40625 -3.5625 1.125 -3.875 C 0.851562 -4.195312 0.71875 -4.59375 0.71875 -5.0625 C 0.71875 -5.425781 0.8125 -5.742188 1 -6.015625 C 1.1875 -6.285156 1.453125 -6.492188 1.796875 -6.640625 C 2.148438 -6.785156 2.570312 -6.859375 3.0625 -6.859375 C 3.675781 -6.859375 4.160156 -6.769531 4.515625 -6.59375 C 4.867188 -6.425781 5.148438 -6.1875 5.359375 -5.875 L 4.796875 -5.328125 L 4.671875 -5.328125 C 4.453125 -5.578125 4.210938 -5.753906 3.953125 -5.859375 C 3.703125 -5.972656 3.40625 -6.03125 3.0625 -6.03125 C 2.613281 -6.03125 2.269531 -5.945312 2.03125 -5.78125 C 1.800781 -5.625 1.6875 -5.398438 1.6875 -5.109375 C 1.6875 -4.828125 1.769531 -4.601562 1.9375 -4.4375 C 2.101562 -4.269531 2.394531 -4.140625 2.8125 -4.046875 L 3.921875 -3.765625 C 4.503906 -3.628906 4.925781 -3.398438 5.1875 -3.078125 C 5.445312 -2.753906 5.578125 -2.351562 5.578125 -1.875 C 5.578125 -1.476562 5.484375 -1.128906 5.296875 -0.828125 C 5.109375 -0.523438 4.828125 -0.289062 4.453125 -0.125 C 4.078125 0.0390625 3.613281 0.125 3.0625 0.125 Z M 3.0625 0.125 "/></g></g></g><g fill="#000000" fill-opacity="1"><g transform="translate(45.332338, 105.805837)"><g><path d="M 1.34375 2.859375 C 1.113281 2.859375 0.898438 2.835938 0.703125 2.796875 C 0.515625 2.753906 0.347656 2.703125 0.203125 2.640625 L 0.390625 1.84375 L 0.5 1.8125 C 0.59375 1.863281 0.710938 1.90625 0.859375 1.9375 C 1.003906 1.96875 1.15625 1.984375 1.3125 1.984375 C 1.582031 1.984375 1.804688 1.945312 1.984375 1.875 C 2.171875 1.800781 2.328125 1.679688 2.453125 1.515625 C 2.578125 1.347656 2.695312 1.113281 2.8125 0.8125 L 3.046875 0.15625 L 0.34375 -6.734375 L 1.421875 -6.734375 L 3.53125 -1.234375 L 3.65625 -1.234375 L 5.703125 -6.734375 L 6.71875 -6.734375 L 3.71875 1.0625 C 3.539062 1.488281 3.34375 1.832031 3.125 2.09375 C 2.914062 2.351562 2.664062 2.546875 2.375 2.671875 C 2.09375 2.796875 1.75 2.859375 1.34375 2.859375 Z M 1.34375 2.859375 "/></g></g></g><g fill="#000000" fill-opacity="1"><g transform="translate(52.42629, 105.805837)"><g><path d="M 3.0625 0.125 C 2.644531 0.125 2.253906 0.0703125 1.890625 -0.03125 C 1.535156 -0.144531 1.234375 -0.300781 0.984375 -0.5 C 0.734375 -0.695312 0.554688 -0.914062 0.453125 -1.15625 L 1.046875 -1.765625 L 1.171875 -1.765625 C 1.390625 -1.429688 1.648438 -1.179688 1.953125 -1.015625 C 2.265625 -0.847656 2.632812 -0.765625 3.0625 -0.765625 C 3.5625 -0.765625 3.941406 -0.859375 4.203125 -1.046875 C 4.460938 -1.242188 4.59375 -1.515625 4.59375 -1.859375 C 4.59375 -2.128906 4.515625 -2.347656 4.359375 -2.515625 C 4.203125 -2.691406 3.945312 -2.820312 3.59375 -2.90625 L 2.453125 -3.1875 C 1.847656 -3.332031 1.40625 -3.5625 1.125 -3.875 C 0.851562 -4.195312 0.71875 -4.59375 0.71875 -5.0625 C 0.71875 -5.425781 0.8125 -5.742188 1 -6.015625 C 1.1875 -6.285156 1.453125 -6.492188 1.796875 -6.640625 C 2.148438 -6.785156 2.570312 -6.859375 3.0625 -6.859375 C 3.675781 -6.859375 4.160156 -6.769531 4.515625 -6.59375 C 4.867188 -6.425781 5.148438 -6.1875 5.359375 -5.875 L 4.796875 -5.328125 L 4.671875 -5.328125 C 4.453125 -5.578125 4.210938 -5.753906 3.953125 -5.859375 C 3.703125 -5.972656 3.40625 -6.03125 3.0625 -6.03125 C 2.613281 -6.03125 2.269531 -5.945312 2.03125 -5.78125 C 1.800781 -5.625 1.6875 -5.398438 1.6875 -5.109375 C 1.6875 -4.828125 1.769531 -4.601562 1.9375 -4.4375 C 2.101562 -4.269531 2.394531 -4.140625 2.8125 -4.046875 L 3.921875 -3.765625 C 4.503906 -3.628906 4.925781 -3.398438 5.1875 -3.078125 C 5.445312 -2.753906 5.578125 -2.351562 5.578125 -1.875 C 5.578125 -1.476562 5.484375 -1.128906 5.296875 -0.828125 C 5.109375 -0.523438 4.828125 -0.289062 4.453125 -0.125 C 4.078125 0.0390625 3.613281 0.125 3.0625 0.125 Z M 3.0625 0.125 "/></g></g></g><g fill="#000000" fill-opacity="1"><g transform="translate(58.647985, 105.805837)"><g><path d="M 4.546875 -1.0625 L 4.875 -0.359375 C 4.707031 -0.191406 4.492188 -0.0703125 4.234375 0 C 3.984375 0.0820312 3.707031 0.125 3.40625 0.125 C 2.125 0.125 1.484375 -0.523438 1.484375 -1.828125 L 1.484375 -5.921875 L 0.3125 -5.921875 L 0.3125 -6.734375 L 1.484375 -6.734375 L 1.484375 -8.15625 L 2.46875 -8.328125 L 2.46875 -6.734375 L 4.640625 -6.734375 L 4.640625 -5.921875 L 2.46875 -5.921875 L 2.46875 -1.921875 C 2.46875 -1.148438 2.804688 -0.765625 3.484375 -0.765625 C 3.847656 -0.765625 4.160156 -0.863281 4.421875 -1.0625 Z M 4.546875 -1.0625 "/></g></g></g><g fill="#000000" fill-opacity="1"><g transform="translate(63.692414, 105.805837)"><g><path d="M 6.421875 -3.140625 L 1.78125 -3.140625 C 1.8125 -2.316406 2.007812 -1.710938 2.375 -1.328125 C 2.738281 -0.953125 3.238281 -0.765625 3.875 -0.765625 C 4.351562 -0.765625 4.738281 -0.847656 5.03125 -1.015625 C 5.320312 -1.191406 5.550781 -1.460938 5.71875 -1.828125 L 5.859375 -1.828125 L 6.5 -1.4375 C 6.300781 -0.945312 5.988281 -0.5625 5.5625 -0.28125 C 5.132812 -0.0078125 4.570312 0.125 3.875 0.125 C 3.226562 0.125 2.671875 0 2.203125 -0.25 C 1.734375 -0.507812 1.367188 -0.898438 1.109375 -1.421875 C 0.859375 -1.941406 0.734375 -2.585938 0.734375 -3.359375 C 0.734375 -4.128906 0.863281 -4.773438 1.125 -5.296875 C 1.394531 -5.816406 1.757812 -6.207031 2.21875 -6.46875 C 2.6875 -6.726562 3.21875 -6.859375 3.8125 -6.859375 C 4.675781 -6.859375 5.347656 -6.613281 5.828125 -6.125 C 6.316406 -5.644531 6.5625 -4.925781 6.5625 -3.96875 C 6.5625 -3.59375 6.554688 -3.335938 6.546875 -3.203125 Z M 5.578125 -3.96875 C 5.566406 -4.6875 5.410156 -5.207031 5.109375 -5.53125 C 4.804688 -5.851562 4.375 -6.015625 3.8125 -6.015625 C 3.226562 -6.015625 2.765625 -5.847656 2.421875 -5.515625 C 2.085938 -5.191406 1.882812 -4.675781 1.8125 -3.96875 Z M 5.578125 -3.96875 "/></g></g></g><g fill="#000000" fill-opacity="1"><g transform="translate(70.865662, 105.805837)"><g><path d="M 1.171875 0 L 1.171875 -6.734375 L 2.125 -6.734375 L 2.125 -5.734375 L 2.25 -5.71875 C 2.476562 -6.09375 2.753906 -6.375 3.078125 -6.5625 C 3.398438 -6.757812 3.785156 -6.859375 4.234375 -6.859375 C 4.753906 -6.859375 5.15625 -6.757812 5.4375 -6.5625 C 5.726562 -6.363281 5.953125 -6.046875 6.109375 -5.609375 L 6.234375 -5.609375 C 6.460938 -6.015625 6.75 -6.320312 7.09375 -6.53125 C 7.4375 -6.75 7.851562 -6.859375 8.34375 -6.859375 C 9.039062 -6.859375 9.554688 -6.671875 9.890625 -6.296875 C 10.234375 -5.921875 10.40625 -5.351562 10.40625 -4.59375 L 10.40625 0 L 9.40625 0 L 9.40625 -4.5625 C 9.40625 -5.050781 9.300781 -5.410156 9.09375 -5.640625 C 8.894531 -5.878906 8.566406 -6 8.109375 -6 C 7.578125 -6 7.140625 -5.800781 6.796875 -5.40625 C 6.453125 -5.019531 6.28125 -4.378906 6.28125 -3.484375 L 6.28125 0 L 5.296875 0 L 5.296875 -4.5625 C 5.296875 -5.050781 5.191406 -5.410156 4.984375 -5.640625 C 4.773438 -5.878906 4.441406 -6 3.984375 -6 C 3.453125 -6 3.015625 -5.804688 2.671875 -5.421875 C 2.335938 -5.046875 2.171875 -4.429688 2.171875 -3.578125 L 2.171875 0 Z M 1.171875 0 "/></g></g></g><g fill="#000000" fill-opacity="1"><g transform="translate(82.333099, 105.805837)"><g><path d="M 3.0625 0.125 C 2.644531 0.125 2.253906 0.0703125 1.890625 -0.03125 C 1.535156 -0.144531 1.234375 -0.300781 0.984375 -0.5 C 0.734375 -0.695312 0.554688 -0.914062 0.453125 -1.15625 L 1.046875 -1.765625 L 1.171875 -1.765625 C 1.390625 -1.429688 1.648438 -1.179688 1.953125 -1.015625 C 2.265625 -0.847656 2.632812 -0.765625 3.0625 -0.765625 C 3.5625 -0.765625 3.941406 -0.859375 4.203125 -1.046875 C 4.460938 -1.242188 4.59375 -1.515625 4.59375 -1.859375 C 4.59375 -2.128906 4.515625 -2.347656 4.359375 -2.515625 C 4.203125 -2.691406 3.945312 -2.820312 3.59375 -2.90625 L 2.453125 -3.1875 C 1.847656 -3.332031 1.40625 -3.5625 1.125 -3.875 C 0.851562 -4.195312 0.71875 -4.59375 0.71875 -5.0625 C 0.71875 -5.425781 0.8125 -5.742188 1 -6.015625 C 1.1875 -6.285156 1.453125 -6.492188 1.796875 -6.640625 C 2.148438 -6.785156 2.570312 -6.859375 3.0625 -6.859375 C 3.675781 -6.859375 4.160156 -6.769531 4.515625 -6.59375 C 4.867188 -6.425781 5.148438 -6.1875 5.359375 -5.875 L 4.796875 -5.328125 L 4.671875 -5.328125 C 4.453125 -5.578125 4.210938 -5.753906 3.953125 -5.859375 C 3.703125 -5.972656 3.40625 -6.03125 3.0625 -6.03125 C 2.613281 -6.03125 2.269531 -5.945312 2.03125 -5.78125 C 1.800781 -5.625 1.6875 -5.398438 1.6875 -5.109375 C 1.6875 -4.828125 1.769531 -4.601562 1.9375 -4.4375 C 2.101562 -4.269531 2.394531 -4.140625 2.8125 -4.046875 L 3.921875 -3.765625 C 4.503906 -3.628906 4.925781 -3.398438 5.1875 -3.078125 C 5.445312 -2.753906 5.578125 -2.351562 5.578125 -1.875 C 5.578125 -1.476562 5.484375 -1.128906 5.296875 -0.828125 C 5.109375 -0.523438 4.828125 -0.289062 4.453125 -0.125 C 4.078125 0.0390625 3.613281 0.125 3.0625 0.125 Z M 3.0625 0.125 "/></g></g></g><path stroke-linecap="butt" transform="matrix(0, 0.75, -0.75, 0, 115.821096, 28.804688)" fill="none" stroke-linejoin="miter" d="M -0.000000319631 0.501045 L 115.197923 0.501045 " stroke="#ffffff" stroke-width="1" stroke-opacity="1" stroke-miterlimit="4"/><g fill="#000000" fill-opacity="1"><g transform="translate(110.238476, 66.749998)"><g><path d="M 5.25 0.171875 C 4.445312 0.171875 3.722656 -0.0078125 3.078125 -0.375 C 2.429688 -0.75 1.921875 -1.289062 1.546875 -2 C 1.179688 -2.71875 1 -3.578125 1 -4.578125 C 1 -5.578125 1.179688 -6.429688 1.546875 -7.140625 C 1.921875 -7.859375 2.429688 -8.398438 3.078125 -8.765625 C 3.722656 -9.140625 4.445312 -9.328125 5.25 -9.328125 C 6.21875 -9.328125 6.988281 -9.144531 7.5625 -8.78125 C 8.132812 -8.414062 8.550781 -7.929688 8.8125 -7.328125 L 7.890625 -6.65625 L 7.71875 -6.65625 C 7.46875 -7.15625 7.144531 -7.523438 6.75 -7.765625 C 6.363281 -8.003906 5.863281 -8.125 5.25 -8.125 C 4.6875 -8.125 4.191406 -7.988281 3.765625 -7.71875 C 3.335938 -7.457031 3.003906 -7.0625 2.765625 -6.53125 C 2.535156 -6 2.421875 -5.347656 2.421875 -4.578125 C 2.421875 -3.804688 2.539062 -3.15625 2.78125 -2.625 C 3.019531 -2.101562 3.347656 -1.707031 3.765625 -1.4375 C 4.191406 -1.164062 4.6875 -1.03125 5.25 -1.03125 C 5.882812 -1.03125 6.410156 -1.175781 6.828125 -1.46875 C 7.253906 -1.757812 7.582031 -2.210938 7.8125 -2.828125 L 8 -2.828125 L 8.875 -2.3125 C 8.644531 -1.539062 8.222656 -0.929688 7.609375 -0.484375 C 6.992188 -0.046875 6.207031 0.171875 5.25 0.171875 Z M 5.25 0.171875 "/></g></g></g><g fill="#000000" fill-opacity="1"><g transform="translate(119.672126, 66.749998)"><g><path d="M 3.640625 0.171875 C 2.992188 0.171875 2.484375 -0.0078125 2.109375 -0.375 C 1.742188 -0.75 1.5625 -1.300781 1.5625 -2.03125 L 1.5625 -12.828125 L 2.90625 -12.828125 L 2.90625 -2.109375 C 2.90625 -1.734375 2.976562 -1.457031 3.125 -1.28125 C 3.28125 -1.113281 3.507812 -1.03125 3.8125 -1.03125 C 4 -1.03125 4.191406 -1.0625 4.390625 -1.125 L 4.5 -1.09375 L 4.671875 -0.03125 C 4.566406 0.03125 4.421875 0.078125 4.234375 0.109375 C 4.046875 0.148438 3.847656 0.171875 3.640625 0.171875 Z M 3.640625 0.171875 "/></g></g></g><g fill="#000000" fill-opacity="1"><g transform="translate(124.650306, 66.749998)"><g><path d="M 8.71875 -4.265625 L 2.4375 -4.265625 C 2.46875 -3.148438 2.726562 -2.332031 3.21875 -1.8125 C 3.71875 -1.289062 4.398438 -1.03125 5.265625 -1.03125 C 5.921875 -1.03125 6.445312 -1.144531 6.84375 -1.375 C 7.25 -1.613281 7.5625 -1.984375 7.78125 -2.484375 L 7.953125 -2.484375 L 8.84375 -1.953125 C 8.570312 -1.296875 8.144531 -0.773438 7.5625 -0.390625 C 6.976562 -0.015625 6.210938 0.171875 5.265625 0.171875 C 4.378906 0.171875 3.617188 0 2.984375 -0.34375 C 2.347656 -0.695312 1.859375 -1.226562 1.515625 -1.9375 C 1.171875 -2.644531 1 -3.523438 1 -4.578125 C 1 -5.617188 1.179688 -6.492188 1.546875 -7.203125 C 1.910156 -7.921875 2.40625 -8.453125 3.03125 -8.796875 C 3.65625 -9.148438 4.375 -9.328125 5.1875 -9.328125 C 6.363281 -9.328125 7.28125 -8.992188 7.9375 -8.328125 C 8.59375 -7.671875 8.925781 -6.691406 8.9375 -5.390625 C 8.9375 -4.878906 8.925781 -4.535156 8.90625 -4.359375 Z M 7.59375 -5.390625 C 7.570312 -6.367188 7.351562 -7.078125 6.9375 -7.515625 C 6.53125 -7.960938 5.945312 -8.1875 5.1875 -8.1875 C 4.382812 -8.1875 3.753906 -7.960938 3.296875 -7.515625 C 2.835938 -7.066406 2.5625 -6.359375 2.46875 -5.390625 Z M 7.59375 -5.390625 "/></g></g></g><g fill="#000000" fill-opacity="1"><g transform="translate(134.407538, 66.749998)"><g><path d="M 3.78125 0.171875 C 2.875 0.171875 2.164062 -0.0625 1.65625 -0.53125 C 1.15625 -1 0.90625 -1.671875 0.90625 -2.546875 C 0.90625 -3.085938 1.015625 -3.546875 1.234375 -3.921875 C 1.460938 -4.296875 1.8125 -4.597656 2.28125 -4.828125 C 2.75 -5.066406 3.363281 -5.25 4.125 -5.375 C 4.789062 -5.488281 5.296875 -5.613281 5.640625 -5.75 C 5.984375 -5.882812 6.210938 -6.035156 6.328125 -6.203125 C 6.453125 -6.378906 6.515625 -6.597656 6.515625 -6.859375 C 6.515625 -7.273438 6.367188 -7.59375 6.078125 -7.8125 C 5.796875 -8.039062 5.34375 -8.15625 4.71875 -8.15625 C 4.125 -8.15625 3.613281 -8.039062 3.1875 -7.8125 C 2.769531 -7.582031 2.382812 -7.238281 2.03125 -6.78125 L 1.859375 -6.78125 L 1.203125 -7.71875 C 1.585938 -8.207031 2.078125 -8.597656 2.671875 -8.890625 C 3.265625 -9.179688 3.945312 -9.328125 4.71875 -9.328125 C 5.789062 -9.328125 6.582031 -9.085938 7.09375 -8.609375 C 7.613281 -8.140625 7.875 -7.488281 7.875 -6.65625 L 7.875 -1.796875 C 7.875 -1.285156 8.085938 -1.03125 8.515625 -1.03125 C 8.660156 -1.03125 8.800781 -1.054688 8.9375 -1.109375 L 9.046875 -1.078125 L 9.203125 -0.140625 C 9.109375 -0.078125 8.976562 -0.03125 8.8125 0 C 8.644531 0.0390625 8.476562 0.0625 8.3125 0.0625 C 7.800781 0.0625 7.414062 -0.046875 7.15625 -0.265625 C 6.90625 -0.484375 6.742188 -0.8125 6.671875 -1.25 L 6.5 -1.265625 C 6.238281 -0.785156 5.882812 -0.425781 5.4375 -0.1875 C 5 0.0507812 4.445312 0.171875 3.78125 0.171875 Z M 4.078125 -0.90625 C 4.585938 -0.90625 5.023438 -1.019531 5.390625 -1.25 C 5.765625 -1.488281 6.050781 -1.820312 6.25 -2.25 C 6.457031 -2.675781 6.5625 -3.171875 6.5625 -3.734375 L 6.5625 -4.890625 L 6.40625 -4.921875 C 6.195312 -4.773438 5.945312 -4.65625 5.65625 -4.5625 C 5.363281 -4.46875 4.953125 -4.378906 4.421875 -4.296875 C 3.890625 -4.222656 3.46875 -4.113281 3.15625 -3.96875 C 2.84375 -3.820312 2.617188 -3.632812 2.484375 -3.40625 C 2.359375 -3.175781 2.296875 -2.890625 2.296875 -2.546875 C 2.296875 -2.015625 2.453125 -1.609375 2.765625 -1.328125 C 3.078125 -1.046875 3.515625 -0.90625 4.078125 -0.90625 Z M 4.078125 -0.90625 "/></g></g></g><g fill="#000000" fill-opacity="1"><g transform="translate(143.874376, 66.749998)"><g><path d="M 1.59375 0 L 1.59375 -9.15625 L 2.875 -9.15625 L 2.875 -7.71875 L 3.0625 -7.671875 C 3.363281 -8.210938 3.75 -8.625 4.21875 -8.90625 C 4.695312 -9.1875 5.273438 -9.328125 5.953125 -9.328125 C 7.054688 -9.328125 7.851562 -9.046875 8.34375 -8.484375 C 8.84375 -7.921875 9.09375 -7.054688 9.09375 -5.890625 L 9.09375 0 L 7.734375 0 L 7.734375 -5.859375 C 7.734375 -6.410156 7.660156 -6.851562 7.515625 -7.1875 C 7.378906 -7.519531 7.160156 -7.765625 6.859375 -7.921875 C 6.566406 -8.078125 6.179688 -8.15625 5.703125 -8.15625 C 4.878906 -8.15625 4.210938 -7.878906 3.703125 -7.328125 C 3.203125 -6.785156 2.953125 -5.910156 2.953125 -4.703125 L 2.953125 0 Z M 1.59375 0 "/></g></g></g><g fill="#000000" fill-opacity="1"><g transform="translate(154.411523, 66.749998)"><g><path d="M 8.71875 -4.265625 L 2.4375 -4.265625 C 2.46875 -3.148438 2.726562 -2.332031 3.21875 -1.8125 C 3.71875 -1.289062 4.398438 -1.03125 5.265625 -1.03125 C 5.921875 -1.03125 6.445312 -1.144531 6.84375 -1.375 C 7.25 -1.613281 7.5625 -1.984375 7.78125 -2.484375 L 7.953125 -2.484375 L 8.84375 -1.953125 C 8.570312 -1.296875 8.144531 -0.773438 7.5625 -0.390625 C 6.976562 -0.015625 6.210938 0.171875 5.265625 0.171875 C 4.378906 0.171875 3.617188 0 2.984375 -0.34375 C 2.347656 -0.695312 1.859375 -1.226562 1.515625 -1.9375 C 1.171875 -2.644531 1 -3.523438 1 -4.578125 C 1 -5.617188 1.179688 -6.492188 1.546875 -7.203125 C 1.910156 -7.921875 2.40625 -8.453125 3.03125 -8.796875 C 3.65625 -9.148438 4.375 -9.328125 5.1875 -9.328125 C 6.363281 -9.328125 7.28125 -8.992188 7.9375 -8.328125 C 8.59375 -7.671875 8.925781 -6.691406 8.9375 -5.390625 C 8.9375 -4.878906 8.925781 -4.535156 8.90625 -4.359375 Z M 7.59375 -5.390625 C 7.570312 -6.367188 7.351562 -7.078125 6.9375 -7.515625 C 6.53125 -7.960938 5.945312 -8.1875 5.1875 -8.1875 C 4.382812 -8.1875 3.753906 -7.960938 3.296875 -7.515625 C 2.835938 -7.066406 2.5625 -6.359375 2.46875 -5.390625 Z M 7.59375 -5.390625 "/></g></g></g><g fill="#000000" fill-opacity="1"><g transform="translate(164.168755, 66.749998)"><g><path d="M 1.59375 0 L 1.59375 -9.15625 L 2.875 -9.15625 L 2.875 -7.71875 L 3.0625 -7.671875 C 3.476562 -8.710938 4.28125 -9.234375 5.46875 -9.234375 C 6.09375 -9.234375 6.554688 -9.125 6.859375 -8.90625 L 6.515625 -7.75 L 6.34375 -7.71875 C 6 -7.894531 5.625 -7.984375 5.21875 -7.984375 C 4.488281 -7.984375 3.925781 -7.707031 3.53125 -7.15625 C 3.144531 -6.601562 2.953125 -5.710938 2.953125 -4.484375 L 2.953125 0 Z M 1.59375 0 "/></g></g></g><g fill="#000000" fill-opacity="1"><g transform="translate(171.23777, 66.749998)"><g/></g></g><g fill="#000000" fill-opacity="1"><g transform="translate(175.406441, 66.749998)"><g><path d="M 3.5625 0.171875 C 2.976562 0.171875 2.46875 0.0664062 2.03125 -0.140625 C 1.601562 -0.359375 1.273438 -0.675781 1.046875 -1.09375 C 0.816406 -1.519531 0.703125 -2.023438 0.703125 -2.609375 C 0.703125 -3.148438 0.816406 -3.601562 1.046875 -3.96875 C 1.273438 -4.34375 1.632812 -4.644531 2.125 -4.875 C 2.613281 -5.113281 3.25 -5.296875 4.03125 -5.421875 C 4.582031 -5.503906 5 -5.597656 5.28125 -5.703125 C 5.570312 -5.816406 5.765625 -5.9375 5.859375 -6.0625 C 5.960938 -6.195312 6.015625 -6.367188 6.015625 -6.578125 C 6.015625 -6.867188 5.910156 -7.09375 5.703125 -7.25 C 5.492188 -7.40625 5.15625 -7.484375 4.6875 -7.484375 C 4.175781 -7.484375 3.691406 -7.367188 3.234375 -7.140625 C 2.773438 -6.910156 2.375 -6.613281 2.03125 -6.25 L 1.875 -6.25 L 0.90625 -7.6875 C 1.375 -8.207031 1.941406 -8.609375 2.609375 -8.890625 C 3.273438 -9.179688 4.003906 -9.328125 4.796875 -9.328125 C 6.003906 -9.328125 6.878906 -9.066406 7.421875 -8.546875 C 7.972656 -8.035156 8.25 -7.304688 8.25 -6.359375 L 8.25 -2.390625 C 8.25 -1.984375 8.425781 -1.78125 8.78125 -1.78125 C 8.914062 -1.78125 9.050781 -1.800781 9.1875 -1.84375 L 9.3125 -1.8125 L 9.46875 -0.21875 C 9.34375 -0.132812 9.164062 -0.0664062 8.9375 -0.015625 C 8.707031 0.0351562 8.457031 0.0625 8.1875 0.0625 C 7.644531 0.0625 7.21875 -0.0390625 6.90625 -0.25 C 6.601562 -0.457031 6.382812 -0.785156 6.25 -1.234375 L 6.078125 -1.25 C 5.628906 -0.300781 4.789062 0.171875 3.5625 0.171875 Z M 4.296875 -1.546875 C 4.828125 -1.546875 5.25 -1.722656 5.5625 -2.078125 C 5.882812 -2.429688 6.046875 -2.925781 6.046875 -3.5625 L 6.046875 -4.5 L 5.890625 -4.53125 C 5.753906 -4.414062 5.570312 -4.320312 5.34375 -4.25 C 5.125 -4.175781 4.804688 -4.101562 4.390625 -4.03125 C 3.890625 -3.945312 3.53125 -3.800781 3.3125 -3.59375 C 3.09375 -3.394531 2.984375 -3.113281 2.984375 -2.75 C 2.984375 -2.351562 3.097656 -2.050781 3.328125 -1.84375 C 3.554688 -1.644531 3.878906 -1.546875 4.296875 -1.546875 Z M 4.296875 -1.546875 "/></g></g></g><g fill="#000000" fill-opacity="1"><g transform="translate(185.055812, 66.749998)"><g><path d="M 2.46875 -10.25 C 2.050781 -10.25 1.710938 -10.375 1.453125 -10.625 C 1.191406 -10.875 1.0625 -11.203125 1.0625 -11.609375 C 1.0625 -11.992188 1.191406 -12.3125 1.453125 -12.5625 C 1.710938 -12.820312 2.050781 -12.953125 2.46875 -12.953125 C 2.738281 -12.953125 2.984375 -12.890625 3.203125 -12.765625 C 3.421875 -12.648438 3.585938 -12.492188 3.703125 -12.296875 C 3.828125 -12.097656 3.890625 -11.867188 3.890625 -11.609375 C 3.890625 -11.347656 3.828125 -11.113281 3.703125 -10.90625 C 3.585938 -10.695312 3.421875 -10.535156 3.203125 -10.421875 C 2.984375 -10.304688 2.738281 -10.25 2.46875 -10.25 Z M 1.3125 0 L 1.3125 -9.15625 L 3.625 -9.15625 L 3.625 0 Z M 1.3125 0 "/></g></g></g><g fill="#000000" fill-opacity="1"><g transform="translate(189.98421, 66.749998)"><g><path d="M 1.3125 0 L 1.3125 -9.15625 L 3.546875 -9.15625 L 3.546875 -7.796875 L 3.734375 -7.765625 C 3.953125 -8.273438 4.238281 -8.644531 4.59375 -8.875 C 4.957031 -9.113281 5.394531 -9.234375 5.90625 -9.234375 C 6.425781 -9.234375 6.820312 -9.144531 7.09375 -8.96875 L 6.703125 -6.984375 L 6.53125 -6.953125 C 6.382812 -7.015625 6.238281 -7.054688 6.09375 -7.078125 C 5.957031 -7.109375 5.789062 -7.125 5.59375 -7.125 C 4.945312 -7.125 4.457031 -6.898438 4.125 -6.453125 C 3.789062 -6.003906 3.625 -5.28125 3.625 -4.28125 L 3.625 0 Z M 1.3125 0 "/></g></g></g><g fill="#000000" fill-opacity="1"><g transform="translate(110.238476, 89.999997)"><g><path d="M 8.71875 -4.265625 L 2.4375 -4.265625 C 2.46875 -3.148438 2.726562 -2.332031 3.21875 -1.8125 C 3.71875 -1.289062 4.398438 -1.03125 5.265625 -1.03125 C 5.921875 -1.03125 6.445312 -1.144531 6.84375 -1.375 C 7.25 -1.613281 7.5625 -1.984375 7.78125 -2.484375 L 7.953125 -2.484375 L 8.84375 -1.953125 C 8.570312 -1.296875 8.144531 -0.773438 7.5625 -0.390625 C 6.976562 -0.015625 6.210938 0.171875 5.265625 0.171875 C 4.378906 0.171875 3.617188 0 2.984375 -0.34375 C 2.347656 -0.695312 1.859375 -1.226562 1.515625 -1.9375 C 1.171875 -2.644531 1 -3.523438 1 -4.578125 C 1 -5.617188 1.179688 -6.492188 1.546875 -7.203125 C 1.910156 -7.921875 2.40625 -8.453125 3.03125 -8.796875 C 3.65625 -9.148438 4.375 -9.328125 5.1875 -9.328125 C 6.363281 -9.328125 7.28125 -8.992188 7.9375 -8.328125 C 8.59375 -7.671875 8.925781 -6.691406 8.9375 -5.390625 C 8.9375 -4.878906 8.925781 -4.535156 8.90625 -4.359375 Z M 7.59375 -5.390625 C 7.570312 -6.367188 7.351562 -7.078125 6.9375 -7.515625 C 6.53125 -7.960938 5.945312 -8.1875 5.1875 -8.1875 C 4.382812 -8.1875 3.753906 -7.960938 3.296875 -7.515625 C 2.835938 -7.066406 2.5625 -6.359375 2.46875 -5.390625 Z M 7.59375 -5.390625 "/></g></g></g><g fill="#000000" fill-opacity="1"><g transform="translate(119.995708, 89.999997)"><g><path d="M 1.59375 0 L 1.59375 -9.15625 L 2.875 -9.15625 L 2.875 -7.71875 L 3.0625 -7.671875 C 3.363281 -8.210938 3.75 -8.625 4.21875 -8.90625 C 4.695312 -9.1875 5.273438 -9.328125 5.953125 -9.328125 C 7.054688 -9.328125 7.851562 -9.046875 8.34375 -8.484375 C 8.84375 -7.921875 9.09375 -7.054688 9.09375 -5.890625 L 9.09375 0 L 7.734375 0 L 7.734375 -5.859375 C 7.734375 -6.410156 7.660156 -6.851562 7.515625 -7.1875 C 7.378906 -7.519531 7.160156 -7.765625 6.859375 -7.921875 C 6.566406 -8.078125 6.179688 -8.15625 5.703125 -8.15625 C 4.878906 -8.15625 4.210938 -7.878906 3.703125 -7.328125 C 3.203125 -6.785156 2.953125 -5.910156 2.953125 -4.703125 L 2.953125 0 Z M 1.59375 0 "/></g></g></g><g fill="#000000" fill-opacity="1"><g transform="translate(130.532855, 89.999997)"><g><path d="M 4.71875 3.890625 C 3.269531 3.890625 2.210938 3.644531 1.546875 3.15625 C 0.890625 2.675781 0.5625 2.039062 0.5625 1.25 C 0.5625 0.726562 0.710938 0.316406 1.015625 0.015625 C 1.328125 -0.285156 1.78125 -0.503906 2.375 -0.640625 L 2.375 -0.8125 C 2.09375 -0.96875 1.878906 -1.15625 1.734375 -1.375 C 1.597656 -1.59375 1.53125 -1.851562 1.53125 -2.15625 C 1.53125 -2.507812 1.640625 -2.796875 1.859375 -3.015625 C 2.085938 -3.234375 2.421875 -3.398438 2.859375 -3.515625 L 2.859375 -3.6875 C 1.867188 -4.21875 1.375 -5.078125 1.375 -6.265625 C 1.375 -6.859375 1.507812 -7.382812 1.78125 -7.84375 C 2.050781 -8.3125 2.4375 -8.675781 2.9375 -8.9375 C 3.4375 -9.195312 4.023438 -9.328125 4.703125 -9.328125 C 5.472656 -9.328125 6.113281 -9.160156 6.625 -8.828125 C 6.820312 -9.035156 6.96875 -9.265625 7.0625 -9.515625 C 7.15625 -9.765625 7.21875 -10.039062 7.25 -10.34375 L 7.421875 -10.453125 L 8.53125 -10.1875 C 8.476562 -9.726562 8.335938 -9.335938 8.109375 -9.015625 C 7.890625 -8.691406 7.570312 -8.425781 7.15625 -8.21875 L 7.15625 -8.046875 C 7.457031 -7.804688 7.675781 -7.53125 7.8125 -7.21875 C 7.957031 -6.90625 8.03125 -6.546875 8.03125 -6.140625 C 8.03125 -5.554688 7.890625 -5.035156 7.609375 -4.578125 C 7.335938 -4.117188 6.945312 -3.757812 6.4375 -3.5 C 5.9375 -3.238281 5.359375 -3.109375 4.703125 -3.109375 C 4.617188 -3.109375 4.476562 -3.113281 4.28125 -3.125 C 4.0625 -3.132812 3.898438 -3.140625 3.796875 -3.140625 C 3.503906 -3.140625 3.269531 -3.0625 3.09375 -2.90625 C 2.925781 -2.757812 2.84375 -2.570312 2.84375 -2.34375 C 2.84375 -2.050781 2.9375 -1.835938 3.125 -1.703125 C 3.3125 -1.566406 3.617188 -1.492188 4.046875 -1.484375 L 6.203125 -1.40625 C 7.140625 -1.375 7.832031 -1.15625 8.28125 -0.75 C 8.738281 -0.351562 8.96875 0.210938 8.96875 0.953125 C 8.96875 1.503906 8.816406 2 8.515625 2.4375 C 8.222656 2.875 7.757812 3.222656 7.125 3.484375 C 6.488281 3.753906 5.6875 3.890625 4.71875 3.890625 Z M 4.703125 -4.265625 C 5.347656 -4.265625 5.847656 -4.429688 6.203125 -4.765625 C 6.554688 -5.109375 6.734375 -5.582031 6.734375 -6.1875 C 6.734375 -6.820312 6.554688 -7.3125 6.203125 -7.65625 C 5.847656 -8 5.347656 -8.171875 4.703125 -8.171875 C 4.046875 -8.171875 3.546875 -8 3.203125 -7.65625 C 2.859375 -7.3125 2.6875 -6.820312 2.6875 -6.1875 C 2.6875 -5.570312 2.859375 -5.097656 3.203125 -4.765625 C 3.546875 -4.429688 4.046875 -4.265625 4.703125 -4.265625 Z M 4.71875 2.71875 C 5.394531 2.71875 5.945312 2.644531 6.375 2.5 C 6.800781 2.351562 7.109375 2.15625 7.296875 1.90625 C 7.484375 1.65625 7.578125 1.378906 7.578125 1.078125 C 7.578125 0.804688 7.523438 0.585938 7.421875 0.421875 C 7.316406 0.253906 7.148438 0.128906 6.921875 0.046875 C 6.703125 -0.0351562 6.394531 -0.0859375 6 -0.109375 L 3.953125 -0.203125 L 3.65625 -0.203125 C 2.507812 -0.191406 1.9375 0.25 1.9375 1.125 C 1.9375 2.1875 2.863281 2.71875 4.71875 2.71875 Z M 4.71875 2.71875 "/></g></g></g><g fill="#000000" fill-opacity="1"><g transform="translate(139.908426, 89.999997)"><g><path d="M 2.28125 -10.921875 C 1.988281 -10.921875 1.75 -11.007812 1.5625 -11.1875 C 1.382812 -11.375 1.296875 -11.601562 1.296875 -11.875 C 1.296875 -12.15625 1.382812 -12.382812 1.5625 -12.5625 C 1.75 -12.738281 1.988281 -12.828125 2.28125 -12.828125 C 2.5625 -12.828125 2.789062 -12.738281 2.96875 -12.5625 C 3.15625 -12.382812 3.25 -12.15625 3.25 -11.875 C 3.25 -11.601562 3.15625 -11.375 2.96875 -11.1875 C 2.789062 -11.007812 2.5625 -10.921875 2.28125 -10.921875 Z M 1.59375 0 L 1.59375 -9.15625 L 2.953125 -9.15625 L 2.953125 0 Z M 1.59375 0 "/></g></g></g><g fill="#000000" fill-opacity="1"><g transform="translate(144.446867, 89.999997)"><g><path d="M 1.59375 0 L 1.59375 -9.15625 L 2.875 -9.15625 L 2.875 -7.71875 L 3.0625 -7.671875 C 3.363281 -8.210938 3.75 -8.625 4.21875 -8.90625 C 4.695312 -9.1875 5.273438 -9.328125 5.953125 -9.328125 C 7.054688 -9.328125 7.851562 -9.046875 8.34375 -8.484375 C 8.84375 -7.921875 9.09375 -7.054688 9.09375 -5.890625 L 9.09375 0 L 7.734375 0 L 7.734375 -5.859375 C 7.734375 -6.410156 7.660156 -6.851562 7.515625 -7.1875 C 7.378906 -7.519531 7.160156 -7.765625 6.859375 -7.921875 C 6.566406 -8.078125 6.179688 -8.15625 5.703125 -8.15625 C 4.878906 -8.15625 4.210938 -7.878906 3.703125 -7.328125 C 3.203125 -6.785156 2.953125 -5.910156 2.953125 -4.703125 L 2.953125 0 Z M 1.59375 0 "/></g></g></g><g fill="#000000" fill-opacity="1"><g transform="translate(154.984014, 89.999997)"><g><path d="M 8.71875 -4.265625 L 2.4375 -4.265625 C 2.46875 -3.148438 2.726562 -2.332031 3.21875 -1.8125 C 3.71875 -1.289062 4.398438 -1.03125 5.265625 -1.03125 C 5.921875 -1.03125 6.445312 -1.144531 6.84375 -1.375 C 7.25 -1.613281 7.5625 -1.984375 7.78125 -2.484375 L 7.953125 -2.484375 L 8.84375 -1.953125 C 8.570312 -1.296875 8.144531 -0.773438 7.5625 -0.390625 C 6.976562 -0.015625 6.210938 0.171875 5.265625 0.171875 C 4.378906 0.171875 3.617188 0 2.984375 -0.34375 C 2.347656 -0.695312 1.859375 -1.226562 1.515625 -1.9375 C 1.171875 -2.644531 1 -3.523438 1 -4.578125 C 1 -5.617188 1.179688 -6.492188 1.546875 -7.203125 C 1.910156 -7.921875 2.40625 -8.453125 3.03125 -8.796875 C 3.65625 -9.148438 4.375 -9.328125 5.1875 -9.328125 C 6.363281 -9.328125 7.28125 -8.992188 7.9375 -8.328125 C 8.59375 -7.671875 8.925781 -6.691406 8.9375 -5.390625 C 8.9375 -4.878906 8.925781 -4.535156 8.90625 -4.359375 Z M 7.59375 -5.390625 C 7.570312 -6.367188 7.351562 -7.078125 6.9375 -7.515625 C 6.53125 -7.960938 5.945312 -8.1875 5.1875 -8.1875 C 4.382812 -8.1875 3.753906 -7.960938 3.296875 -7.515625 C 2.835938 -7.066406 2.5625 -6.359375 2.46875 -5.390625 Z M 7.59375 -5.390625 "/></g></g></g><g fill="#000000" fill-opacity="1"><g transform="translate(164.741246, 89.999997)"><g><path d="M 8.71875 -4.265625 L 2.4375 -4.265625 C 2.46875 -3.148438 2.726562 -2.332031 3.21875 -1.8125 C 3.71875 -1.289062 4.398438 -1.03125 5.265625 -1.03125 C 5.921875 -1.03125 6.445312 -1.144531 6.84375 -1.375 C 7.25 -1.613281 7.5625 -1.984375 7.78125 -2.484375 L 7.953125 -2.484375 L 8.84375 -1.953125 C 8.570312 -1.296875 8.144531 -0.773438 7.5625 -0.390625 C 6.976562 -0.015625 6.210938 0.171875 5.265625 0.171875 C 4.378906 0.171875 3.617188 0 2.984375 -0.34375 C 2.347656 -0.695312 1.859375 -1.226562 1.515625 -1.9375 C 1.171875 -2.644531 1 -3.523438 1 -4.578125 C 1 -5.617188 1.179688 -6.492188 1.546875 -7.203125 C 1.910156 -7.921875 2.40625 -8.453125 3.03125 -8.796875 C 3.65625 -9.148438 4.375 -9.328125 5.1875 -9.328125 C 6.363281 -9.328125 7.28125 -8.992188 7.9375 -8.328125 C 8.59375 -7.671875 8.925781 -6.691406 8.9375 -5.390625 C 8.9375 -4.878906 8.925781 -4.535156 8.90625 -4.359375 Z M 7.59375 -5.390625 C 7.570312 -6.367188 7.351562 -7.078125 6.9375 -7.515625 C 6.53125 -7.960938 5.945312 -8.1875 5.1875 -8.1875 C 4.382812 -8.1875 3.753906 -7.960938 3.296875 -7.515625 C 2.835938 -7.066406 2.5625 -6.359375 2.46875 -5.390625 Z M 7.59375 -5.390625 "/></g></g></g><g fill="#000000" fill-opacity="1"><g transform="translate(174.498478, 89.999997)"><g><path d="M 1.59375 0 L 1.59375 -9.15625 L 2.875 -9.15625 L 2.875 -7.71875 L 3.0625 -7.671875 C 3.476562 -8.710938 4.28125 -9.234375 5.46875 -9.234375 C 6.09375 -9.234375 6.554688 -9.125 6.859375 -8.90625 L 6.515625 -7.75 L 6.34375 -7.71875 C 6 -7.894531 5.625 -7.984375 5.21875 -7.984375 C 4.488281 -7.984375 3.925781 -7.707031 3.53125 -7.15625 C 3.144531 -6.601562 2.953125 -5.710938 2.953125 -4.484375 L 2.953125 0 Z M 1.59375 0 "/></g></g></g><g fill="#000000" fill-opacity="1"><g transform="translate(181.326847, 89.999997)"><g><path d="M 8.71875 -4.265625 L 2.4375 -4.265625 C 2.46875 -3.148438 2.726562 -2.332031 3.21875 -1.8125 C 3.71875 -1.289062 4.398438 -1.03125 5.265625 -1.03125 C 5.921875 -1.03125 6.445312 -1.144531 6.84375 -1.375 C 7.25 -1.613281 7.5625 -1.984375 7.78125 -2.484375 L 7.953125 -2.484375 L 8.84375 -1.953125 C 8.570312 -1.296875 8.144531 -0.773438 7.5625 -0.390625 C 6.976562 -0.015625 6.210938 0.171875 5.265625 0.171875 C 4.378906 0.171875 3.617188 0 2.984375 -0.34375 C 2.347656 -0.695312 1.859375 -1.226562 1.515625 -1.9375 C 1.171875 -2.644531 1 -3.523438 1 -4.578125 C 1 -5.617188 1.179688 -6.492188 1.546875 -7.203125 C 1.910156 -7.921875 2.40625 -8.453125 3.03125 -8.796875 C 3.65625 -9.148438 4.375 -9.328125 5.1875 -9.328125 C 6.363281 -9.328125 7.28125 -8.992188 7.9375 -8.328125 C 8.59375 -7.671875 8.925781 -6.691406 8.9375 -5.390625 C 8.9375 -4.878906 8.925781 -4.535156 8.90625 -4.359375 Z M 7.59375 -5.390625 C 7.570312 -6.367188 7.351562 -7.078125 6.9375 -7.515625 C 6.53125 -7.960938 5.945312 -8.1875 5.1875 -8.1875 C 4.382812 -8.1875 3.753906 -7.960938 3.296875 -7.515625 C 2.835938 -7.066406 2.5625 -6.359375 2.46875 -5.390625 Z M 7.59375 -5.390625 "/></g></g></g><g fill="#000000" fill-opacity="1"><g transform="translate(191.084079, 89.999997)"><g><path d="M 4.75 0.171875 C 4.007812 0.171875 3.359375 0 2.796875 -0.34375 C 2.234375 -0.695312 1.789062 -1.226562 1.46875 -1.9375 C 1.15625 -2.644531 1 -3.523438 1 -4.578125 C 1 -5.617188 1.164062 -6.492188 1.5 -7.203125 C 1.832031 -7.921875 2.289062 -8.453125 2.875 -8.796875 C 3.457031 -9.148438 4.132812 -9.328125 4.90625 -9.328125 C 5.507812 -9.328125 6.054688 -9.210938 6.546875 -8.984375 C 7.035156 -8.753906 7.453125 -8.378906 7.796875 -7.859375 L 7.984375 -7.890625 L 7.984375 -12.828125 L 9.328125 -12.828125 L 9.328125 0 L 7.984375 0 L 7.984375 -1.34375 L 7.796875 -1.375 C 7.503906 -0.914062 7.097656 -0.539062 6.578125 -0.25 C 6.066406 0.03125 5.457031 0.171875 4.75 0.171875 Z M 5.171875 -1.03125 C 6.023438 -1.03125 6.707031 -1.320312 7.21875 -1.90625 C 7.726562 -2.5 7.984375 -3.390625 7.984375 -4.578125 C 7.984375 -5.765625 7.726562 -6.648438 7.21875 -7.234375 C 6.707031 -7.828125 6.023438 -8.125 5.171875 -8.125 C 4.296875 -8.125 3.617188 -7.835938 3.140625 -7.265625 C 2.660156 -6.691406 2.421875 -5.796875 2.421875 -4.578125 C 2.421875 -2.210938 3.335938 -1.03125 5.171875 -1.03125 Z M 5.171875 -1.03125 "/></g></g></g><g fill="#000000" fill-opacity="1"><g transform="translate(206.179876, 89.999997)"><g><path d="M 1.609375 0 L 1.609375 -7.34375 L 0.3125 -7.34375 L 0.3125 -9.171875 L 1.609375 -9.171875 C 1.515625 -9.554688 1.46875 -9.914062 1.46875 -10.25 C 1.46875 -10.832031 1.597656 -11.328125 1.859375 -11.734375 C 2.128906 -12.148438 2.507812 -12.460938 3 -12.671875 C 3.5 -12.890625 4.09375 -13 4.78125 -13 C 5.789062 -13 6.546875 -12.828125 7.046875 -12.484375 L 6.515625 -10.796875 L 6.328125 -10.765625 C 5.984375 -11.003906 5.546875 -11.125 5.015625 -11.125 C 4.597656 -11.125 4.285156 -11.019531 4.078125 -10.8125 C 3.867188 -10.613281 3.765625 -10.34375 3.765625 -10 C 3.765625 -9.84375 3.773438 -9.703125 3.796875 -9.578125 C 3.816406 -9.453125 3.851562 -9.316406 3.90625 -9.171875 L 6.515625 -9.171875 L 6.515625 -7.34375 L 3.90625 -7.34375 L 3.90625 0 Z M 1.609375 0 "/></g></g></g><g fill="#000000" fill-opacity="1"><g transform="translate(212.784261, 89.999997)"><g><path d="M 3.796875 0.171875 C 2.972656 0.171875 2.34375 -0.046875 1.90625 -0.484375 C 1.476562 -0.929688 1.265625 -1.613281 1.265625 -2.53125 L 1.265625 -12.828125 L 3.5625 -12.828125 L 3.5625 -2.609375 C 3.5625 -2.054688 3.796875 -1.78125 4.265625 -1.78125 C 4.390625 -1.78125 4.53125 -1.800781 4.6875 -1.84375 L 4.796875 -1.8125 L 5 -0.046875 C 4.875 0.0234375 4.707031 0.078125 4.5 0.109375 C 4.289062 0.148438 4.054688 0.171875 3.796875 0.171875 Z M 3.796875 0.171875 "/></g></g></g><g fill="#000000" fill-opacity="1"><g transform="translate(218.044538, 89.999997)"><g><path d="M 5.328125 0.171875 C 4.421875 0.171875 3.628906 -0.0078125 2.953125 -0.375 C 2.273438 -0.75 1.75 -1.289062 1.375 -2 C 1.007812 -2.707031 0.828125 -3.566406 0.828125 -4.578125 C 0.828125 -5.578125 1.007812 -6.429688 1.375 -7.140625 C 1.75 -7.859375 2.273438 -8.398438 2.953125 -8.765625 C 3.628906 -9.140625 4.421875 -9.328125 5.328125 -9.328125 C 6.222656 -9.328125 7.007812 -9.140625 7.6875 -8.765625 C 8.363281 -8.398438 8.890625 -7.859375 9.265625 -7.140625 C 9.640625 -6.429688 9.828125 -5.578125 9.828125 -4.578125 C 9.828125 -3.566406 9.640625 -2.707031 9.265625 -2 C 8.890625 -1.289062 8.363281 -0.75 7.6875 -0.375 C 7.007812 -0.0078125 6.222656 0.171875 5.328125 0.171875 Z M 5.328125 -1.78125 C 6.742188 -1.78125 7.453125 -2.710938 7.453125 -4.578125 C 7.453125 -5.546875 7.269531 -6.253906 6.90625 -6.703125 C 6.539062 -7.148438 6.015625 -7.375 5.328125 -7.375 C 3.898438 -7.375 3.1875 -6.441406 3.1875 -4.578125 C 3.1875 -2.710938 3.898438 -1.78125 5.328125 -1.78125 Z M 5.328125 -1.78125 "/></g></g></g><g fill="#000000" fill-opacity="1"><g transform="translate(228.614861, 89.999997)"><g><path d="M 4.921875 0 L 2.5 0 L 0.328125 -9.15625 L 2.46875 -9.15625 L 3.8125 -2.96875 L 3.984375 -2.96875 L 5.734375 -9.15625 L 7.71875 -9.15625 L 9.515625 -2.96875 L 9.703125 -2.96875 L 10.984375 -9.15625 L 13.0625 -9.15625 L 10.921875 0 L 8.5 0 L 6.765625 -6.234375 L 6.59375 -6.234375 Z M 4.921875 0 "/></g></g></g><path stroke-linecap="butt" transform="matrix(0, 0.75, -0.75, 0, 99.916424, 38.449218)" fill="none" stroke-linejoin="miter" d="M 0.000000399429 0.497941 L 89.484381 0.497941 " stroke="#000000" stroke-width="1" stroke-opacity="1" stroke-miterlimit="4"/></svg>