<?xml version="1.0" encoding="iso-8859-1"?>
<!-- Uploaded to: SVG Repo, www.svgrepo.com, Generator: SVG Repo Mixer Tools -->
<svg fill="#000000" height="800px" width="800px" version="1.1" id="Layer_1" xmlns="http://www.w3.org/2000/svg" xmlns:xlink="http://www.w3.org/1999/xlink" 
	 viewBox="0 0 512 512" xml:space="preserve">
<g>
	<g>
		<path d="M453.333,490.667h-33.28L357.227,9.28C356.587,3.947,352,0,346.667,0H165.333c-5.333,0-9.92,3.947-10.56,9.28
			L91.947,490.667h-33.28c-5.867,0-10.667,4.8-10.667,10.667C48,507.2,52.8,512,58.667,512h394.667C459.2,512,464,507.2,464,501.333
			C464,495.467,459.2,490.667,453.333,490.667z M363.52,222.293L270.187,114.88L339.2,35.52L363.52,222.293z M323.2,21.333
			L256,98.667l-67.307-77.333H323.2z M172.8,35.52l69.013,79.36L148.48,222.293L172.8,35.52z M256,131.2l107.733,123.84L256,350.293
			L148.373,255.04L256,131.2z M141.333,277.333l98.56,87.253L115.627,474.453L141.333,277.333z M129.493,490.667L256,378.773
			l126.507,111.893H129.493z M272.107,364.48l98.56-87.147l25.707,197.12L272.107,364.48z"/>
	</g>
</g>
</svg>